<mxfile host="app.diagrams.net" agent="Mozilla/5.0 (Windows NT 10.0; Win64; x64) AppleWebKit/537.36 (KHTML, like Gecko) Chrome/127.0.0.0 Safari/537.36" version="24.7.7">
  <diagram name="Page-1" id="pKoCIBb4wa4C_yvusNCz">
    <mxGraphModel dx="1050" dy="522" grid="1" gridSize="10" guides="1" tooltips="1" connect="1" arrows="1" fold="1" page="1" pageScale="1" pageWidth="850" pageHeight="1100" math="0" shadow="0">
      <root>
        <mxCell id="0" />
        <mxCell id="1" style="" parent="0" />
        <mxCell id="l0XXXu_YX6A5Vpxv8jNm-2" value="sum" style="rounded=0;whiteSpace=wrap;html=1;" parent="1" vertex="1">
          <mxGeometry x="150" y="360" width="120" height="30" as="geometry" />
        </mxCell>
        <mxCell id="l0XXXu_YX6A5Vpxv8jNm-3" value="calc" style="rounded=0;whiteSpace=wrap;html=1;" parent="1" vertex="1">
          <mxGeometry x="150" y="390" width="120" height="30" as="geometry" />
        </mxCell>
        <mxCell id="l0XXXu_YX6A5Vpxv8jNm-4" value="localVar" style="rounded=0;whiteSpace=wrap;html=1;" parent="1" vertex="1">
          <mxGeometry x="150" y="420" width="120" height="30" as="geometry" />
        </mxCell>
        <mxCell id="l0XXXu_YX6A5Vpxv8jNm-5" value="Main Method Stack" style="text;html=1;align=center;verticalAlign=middle;whiteSpace=wrap;rounded=0;fontStyle=1;fontSize=14;" parent="1" vertex="1">
          <mxGeometry x="180" y="450" width="170" height="40" as="geometry" />
        </mxCell>
        <mxCell id="l0XXXu_YX6A5Vpxv8jNm-8" value="7" style="rounded=0;whiteSpace=wrap;html=1;" parent="1" vertex="1">
          <mxGeometry x="270" y="360" width="120" height="30" as="geometry" />
        </mxCell>
        <mxCell id="l0XXXu_YX6A5Vpxv8jNm-31" style="edgeStyle=orthogonalEdgeStyle;rounded=0;orthogonalLoop=1;jettySize=auto;html=1;entryX=0.5;entryY=1;entryDx=0;entryDy=0;curved=1;entryPerimeter=0;exitX=1;exitY=0.5;exitDx=0;exitDy=0;" parent="1" source="l0XXXu_YX6A5Vpxv8jNm-9" target="l0XXXu_YX6A5Vpxv8jNm-29" edge="1">
          <mxGeometry relative="1" as="geometry">
            <Array as="points">
              <mxPoint x="390" y="360" />
              <mxPoint x="530" y="360" />
              <mxPoint x="530" y="330" />
              <mxPoint x="640" y="330" />
            </Array>
          </mxGeometry>
        </mxCell>
        <mxCell id="l0XXXu_YX6A5Vpxv8jNm-9" value="101" style="rounded=0;whiteSpace=wrap;html=1;" parent="1" vertex="1">
          <mxGeometry x="270" y="390" width="120" height="30" as="geometry" />
        </mxCell>
        <mxCell id="l0XXXu_YX6A5Vpxv8jNm-10" value="10" style="rounded=0;whiteSpace=wrap;html=1;" parent="1" vertex="1">
          <mxGeometry x="270" y="420" width="120" height="30" as="geometry" />
        </mxCell>
        <mxCell id="l0XXXu_YX6A5Vpxv8jNm-11" value="" style="ellipse;shape=cloud;whiteSpace=wrap;html=1;labelBackgroundColor=none;fillColor=none;" parent="1" vertex="1">
          <mxGeometry x="390" y="80" width="580" height="400" as="geometry" />
        </mxCell>
        <mxCell id="l0XXXu_YX6A5Vpxv8jNm-12" value="Heap&amp;nbsp;" style="text;html=1;align=center;verticalAlign=middle;whiteSpace=wrap;rounded=0;fontStyle=1;fontSize=14;" parent="1" vertex="1">
          <mxGeometry x="560" y="480" width="170" height="30" as="geometry" />
        </mxCell>
        <mxCell id="l0XXXu_YX6A5Vpxv8jNm-20" value="" style="rounded=0;whiteSpace=wrap;html=1;" parent="1" vertex="1">
          <mxGeometry x="150" y="170" width="120" height="30" as="geometry" />
        </mxCell>
        <mxCell id="l0XXXu_YX6A5Vpxv8jNm-21" value="n2" style="rounded=0;whiteSpace=wrap;html=1;" parent="1" vertex="1">
          <mxGeometry x="150" y="200" width="120" height="30" as="geometry" />
        </mxCell>
        <mxCell id="l0XXXu_YX6A5Vpxv8jNm-22" value="n1" style="rounded=0;whiteSpace=wrap;html=1;" parent="1" vertex="1">
          <mxGeometry x="150" y="230" width="120" height="30" as="geometry" />
        </mxCell>
        <mxCell id="l0XXXu_YX6A5Vpxv8jNm-23" value="Add Method Stack" style="text;html=1;align=center;verticalAlign=middle;whiteSpace=wrap;rounded=0;fontStyle=1;fontSize=14;" parent="1" vertex="1">
          <mxGeometry x="190" y="265" width="170" height="35" as="geometry" />
        </mxCell>
        <mxCell id="l0XXXu_YX6A5Vpxv8jNm-24" value="" style="rounded=0;whiteSpace=wrap;html=1;" parent="1" vertex="1">
          <mxGeometry x="270" y="170" width="120" height="30" as="geometry" />
        </mxCell>
        <mxCell id="l0XXXu_YX6A5Vpxv8jNm-25" value="4" style="rounded=0;whiteSpace=wrap;html=1;" parent="1" vertex="1">
          <mxGeometry x="270" y="200" width="120" height="30" as="geometry" />
        </mxCell>
        <mxCell id="l0XXXu_YX6A5Vpxv8jNm-26" value="5" style="rounded=0;whiteSpace=wrap;html=1;" parent="1" vertex="1">
          <mxGeometry x="270" y="230" width="120" height="30" as="geometry" />
        </mxCell>
        <mxCell id="l0XXXu_YX6A5Vpxv8jNm-28" value="add()" style="rounded=0;whiteSpace=wrap;html=1;" parent="1" vertex="1">
          <mxGeometry x="580" y="220" width="120" height="35" as="geometry" />
        </mxCell>
        <mxCell id="l0XXXu_YX6A5Vpxv8jNm-29" value="instanceVar=6" style="rounded=0;whiteSpace=wrap;html=1;" parent="1" vertex="1">
          <mxGeometry x="580" y="255" width="120" height="35" as="geometry" />
        </mxCell>
        <mxCell id="l0XXXu_YX6A5Vpxv8jNm-30" value="&lt;b&gt;&lt;font style=&quot;font-size: 14px;&quot;&gt;101&lt;/font&gt;&lt;/b&gt;" style="text;html=1;align=center;verticalAlign=middle;whiteSpace=wrap;rounded=0;" parent="1" vertex="1">
          <mxGeometry x="605" y="190" width="60" height="30" as="geometry" />
        </mxCell>
        <mxCell id="l0XXXu_YX6A5Vpxv8jNm-38" value="add()" style="rounded=0;whiteSpace=wrap;html=1;" parent="1" vertex="1">
          <mxGeometry x="720" y="220" width="120" height="35" as="geometry" />
        </mxCell>
        <mxCell id="l0XXXu_YX6A5Vpxv8jNm-39" value="instanceVar=16" style="rounded=0;whiteSpace=wrap;html=1;" parent="1" vertex="1">
          <mxGeometry x="720" y="255" width="120" height="35" as="geometry" />
        </mxCell>
        <mxCell id="l0XXXu_YX6A5Vpxv8jNm-40" value="102" style="text;html=1;align=center;verticalAlign=middle;whiteSpace=wrap;rounded=0;fontStyle=1;fontSize=13;" parent="1" vertex="1">
          <mxGeometry x="745" y="190" width="60" height="30" as="geometry" />
        </mxCell>
        <mxCell id="l0XXXu_YX6A5Vpxv8jNm-41" value="calc1" style="rounded=0;whiteSpace=wrap;html=1;" parent="1" vertex="1">
          <mxGeometry x="150" y="330" width="120" height="30" as="geometry" />
        </mxCell>
        <mxCell id="l0XXXu_YX6A5Vpxv8jNm-43" style="edgeStyle=orthogonalEdgeStyle;rounded=0;orthogonalLoop=1;jettySize=auto;html=1;entryX=0.5;entryY=1;entryDx=0;entryDy=0;curved=1;exitX=1;exitY=0.5;exitDx=0;exitDy=0;" parent="1" source="l0XXXu_YX6A5Vpxv8jNm-42" target="l0XXXu_YX6A5Vpxv8jNm-39" edge="1">
          <mxGeometry relative="1" as="geometry">
            <Array as="points">
              <mxPoint x="390" y="380" />
              <mxPoint x="780" y="380" />
            </Array>
          </mxGeometry>
        </mxCell>
        <mxCell id="l0XXXu_YX6A5Vpxv8jNm-42" value="102" style="rounded=0;whiteSpace=wrap;html=1;" parent="1" vertex="1">
          <mxGeometry x="270" y="330" width="120" height="30" as="geometry" />
        </mxCell>
        <mxCell id="l0XXXu_YX6A5Vpxv8jNm-46" value="s1" style="rounded=0;whiteSpace=wrap;html=1;" parent="1" vertex="1">
          <mxGeometry x="170" y="880" width="120" height="30" as="geometry" />
        </mxCell>
        <mxCell id="l0XXXu_YX6A5Vpxv8jNm-47" value="Main Method Stack" style="text;html=1;align=center;verticalAlign=middle;whiteSpace=wrap;rounded=0;fontStyle=1;fontSize=14;" parent="1" vertex="1">
          <mxGeometry x="200" y="910" width="170" height="40" as="geometry" />
        </mxCell>
        <mxCell id="l0XXXu_YX6A5Vpxv8jNm-49" style="edgeStyle=orthogonalEdgeStyle;rounded=0;orthogonalLoop=1;jettySize=auto;html=1;entryX=0.5;entryY=1;entryDx=0;entryDy=0;curved=1;entryPerimeter=0;exitX=1;exitY=0.5;exitDx=0;exitDy=0;" parent="1" source="l0XXXu_YX6A5Vpxv8jNm-51" target="l0XXXu_YX6A5Vpxv8jNm-61" edge="1">
          <mxGeometry relative="1" as="geometry">
            <Array as="points">
              <mxPoint x="410" y="880" />
              <mxPoint x="660" y="880" />
            </Array>
            <mxPoint x="410" y="865" as="sourcePoint" />
          </mxGeometry>
        </mxCell>
        <mxCell id="l0XXXu_YX6A5Vpxv8jNm-51" value="101" style="rounded=0;whiteSpace=wrap;html=1;" parent="1" vertex="1">
          <mxGeometry x="290" y="880" width="120" height="30" as="geometry" />
        </mxCell>
        <mxCell id="l0XXXu_YX6A5Vpxv8jNm-52" value="Heap&amp;nbsp;" style="text;html=1;align=center;verticalAlign=middle;whiteSpace=wrap;rounded=0;fontStyle=1;fontSize=14;" parent="1" vertex="1">
          <mxGeometry x="650" y="930" width="170" height="30" as="geometry" />
        </mxCell>
        <mxCell id="l0XXXu_YX6A5Vpxv8jNm-53" value="" style="rounded=0;whiteSpace=wrap;html=1;" parent="1" vertex="1">
          <mxGeometry x="170" y="630" width="120" height="30" as="geometry" />
        </mxCell>
        <mxCell id="l0XXXu_YX6A5Vpxv8jNm-54" value="" style="rounded=0;whiteSpace=wrap;html=1;" parent="1" vertex="1">
          <mxGeometry x="170" y="660" width="120" height="30" as="geometry" />
        </mxCell>
        <mxCell id="l0XXXu_YX6A5Vpxv8jNm-55" value="" style="rounded=0;whiteSpace=wrap;html=1;" parent="1" vertex="1">
          <mxGeometry x="170" y="690" width="120" height="30" as="geometry" />
        </mxCell>
        <mxCell id="l0XXXu_YX6A5Vpxv8jNm-56" value="Details Method Stack" style="text;html=1;align=center;verticalAlign=middle;whiteSpace=wrap;rounded=0;fontStyle=1;fontSize=14;" parent="1" vertex="1">
          <mxGeometry x="210" y="725" width="170" height="35" as="geometry" />
        </mxCell>
        <mxCell id="l0XXXu_YX6A5Vpxv8jNm-57" value="" style="rounded=0;whiteSpace=wrap;html=1;" parent="1" vertex="1">
          <mxGeometry x="290" y="630" width="120" height="30" as="geometry" />
        </mxCell>
        <mxCell id="l0XXXu_YX6A5Vpxv8jNm-58" value="" style="rounded=0;whiteSpace=wrap;html=1;" parent="1" vertex="1">
          <mxGeometry x="290" y="660" width="120" height="30" as="geometry" />
        </mxCell>
        <mxCell id="l0XXXu_YX6A5Vpxv8jNm-59" value="" style="rounded=0;whiteSpace=wrap;html=1;" parent="1" vertex="1">
          <mxGeometry x="290" y="690" width="120" height="30" as="geometry" />
        </mxCell>
        <mxCell id="l0XXXu_YX6A5Vpxv8jNm-60" value="id=1" style="rounded=0;whiteSpace=wrap;html=1;" parent="1" vertex="1">
          <mxGeometry x="600" y="680" width="120" height="35" as="geometry" />
        </mxCell>
        <mxCell id="l0XXXu_YX6A5Vpxv8jNm-61" value="details()" style="rounded=0;whiteSpace=wrap;html=1;" parent="1" vertex="1">
          <mxGeometry x="600" y="715" width="120" height="35" as="geometry" />
        </mxCell>
        <mxCell id="l0XXXu_YX6A5Vpxv8jNm-75" style="edgeStyle=orthogonalEdgeStyle;rounded=0;orthogonalLoop=1;jettySize=auto;html=1;exitX=0.5;exitY=0;exitDx=0;exitDy=0;entryX=0;entryY=0.5;entryDx=0;entryDy=0;curved=1;" parent="1" edge="1">
          <mxGeometry relative="1" as="geometry">
            <mxPoint x="665" y="605" as="sourcePoint" />
            <mxPoint x="1035" y="717.5" as="targetPoint" />
            <Array as="points">
              <mxPoint x="665" y="585" />
              <mxPoint x="965" y="585" />
              <mxPoint x="965" y="718" />
            </Array>
          </mxGeometry>
        </mxCell>
        <mxCell id="l0XXXu_YX6A5Vpxv8jNm-62" value="&lt;b&gt;&lt;font style=&quot;font-size: 14px;&quot;&gt;101&lt;/font&gt;&lt;/b&gt;" style="text;html=1;align=center;verticalAlign=middle;whiteSpace=wrap;rounded=0;" parent="1" vertex="1">
          <mxGeometry x="630" y="620" width="60" height="30" as="geometry" />
        </mxCell>
        <mxCell id="l0XXXu_YX6A5Vpxv8jNm-63" value="id=2" style="rounded=0;whiteSpace=wrap;html=1;" parent="1" vertex="1">
          <mxGeometry x="740" y="680" width="120" height="35" as="geometry" />
        </mxCell>
        <mxCell id="l0XXXu_YX6A5Vpxv8jNm-64" value="details()" style="rounded=0;whiteSpace=wrap;html=1;" parent="1" vertex="1">
          <mxGeometry x="740" y="715" width="120" height="35" as="geometry" />
        </mxCell>
        <mxCell id="l0XXXu_YX6A5Vpxv8jNm-77" style="edgeStyle=orthogonalEdgeStyle;rounded=0;orthogonalLoop=1;jettySize=auto;html=1;exitX=0.5;exitY=0;exitDx=0;exitDy=0;entryX=0;entryY=0.75;entryDx=0;entryDy=0;curved=1;" parent="1" source="l0XXXu_YX6A5Vpxv8jNm-65" target="l0XXXu_YX6A5Vpxv8jNm-72" edge="1">
          <mxGeometry relative="1" as="geometry">
            <Array as="points">
              <mxPoint x="800" y="610" />
              <mxPoint x="930" y="610" />
              <mxPoint x="930" y="784" />
            </Array>
          </mxGeometry>
        </mxCell>
        <mxCell id="l0XXXu_YX6A5Vpxv8jNm-65" value="102" style="text;html=1;align=center;verticalAlign=middle;whiteSpace=wrap;rounded=0;fontStyle=1;fontSize=13;" parent="1" vertex="1">
          <mxGeometry x="770" y="620" width="60" height="30" as="geometry" />
        </mxCell>
        <mxCell id="l0XXXu_YX6A5Vpxv8jNm-66" value="calc1" style="rounded=0;whiteSpace=wrap;html=1;" parent="1" vertex="1">
          <mxGeometry x="170" y="850" width="120" height="30" as="geometry" />
        </mxCell>
        <mxCell id="l0XXXu_YX6A5Vpxv8jNm-67" style="edgeStyle=orthogonalEdgeStyle;rounded=0;orthogonalLoop=1;jettySize=auto;html=1;entryX=0.5;entryY=1;entryDx=0;entryDy=0;curved=1;exitX=1;exitY=0.5;exitDx=0;exitDy=0;" parent="1" source="l0XXXu_YX6A5Vpxv8jNm-68" target="l0XXXu_YX6A5Vpxv8jNm-64" edge="1">
          <mxGeometry relative="1" as="geometry">
            <Array as="points">
              <mxPoint x="410" y="840" />
              <mxPoint x="800" y="840" />
            </Array>
          </mxGeometry>
        </mxCell>
        <mxCell id="l0XXXu_YX6A5Vpxv8jNm-68" value="102" style="rounded=0;whiteSpace=wrap;html=1;" parent="1" vertex="1">
          <mxGeometry x="290" y="850" width="120" height="30" as="geometry" />
        </mxCell>
        <mxCell id="l0XXXu_YX6A5Vpxv8jNm-69" value="" style="ellipse;shape=cloud;whiteSpace=wrap;html=1;labelBackgroundColor=none;fillColor=none;" parent="1" vertex="1">
          <mxGeometry x="420" y="505" width="580" height="400" as="geometry" />
        </mxCell>
        <mxCell id="l0XXXu_YX6A5Vpxv8jNm-70" value="marks=95" style="rounded=0;whiteSpace=wrap;html=1;" parent="1" vertex="1">
          <mxGeometry x="600" y="650" width="120" height="30" as="geometry" />
        </mxCell>
        <mxCell id="l0XXXu_YX6A5Vpxv8jNm-71" value="marks=96" style="rounded=0;whiteSpace=wrap;html=1;" parent="1" vertex="1">
          <mxGeometry x="740" y="650" width="120" height="30" as="geometry" />
        </mxCell>
        <mxCell id="l0XXXu_YX6A5Vpxv8jNm-72" value="schoolname=BITS" style="rounded=1;whiteSpace=wrap;html=1;" parent="1" vertex="1">
          <mxGeometry x="1030" y="630" width="120" height="205" as="geometry" />
        </mxCell>
        <mxCell id="l0XXXu_YX6A5Vpxv8jNm-73" value="MetaSpace" style="text;html=1;align=center;verticalAlign=middle;whiteSpace=wrap;rounded=0;fontStyle=1;fontSize=14;" parent="1" vertex="1">
          <mxGeometry x="1000" y="585" width="170" height="35" as="geometry" />
        </mxCell>
        <mxCell id="3HEFfXsCce3jdv47LW5A-1" value="i" style="rounded=0;whiteSpace=wrap;html=1;" parent="1" vertex="1">
          <mxGeometry x="170" y="1200" width="120" height="30" as="geometry" />
        </mxCell>
        <mxCell id="3HEFfXsCce3jdv47LW5A-2" value="Main Method Stack" style="text;html=1;align=center;verticalAlign=middle;whiteSpace=wrap;rounded=0;fontStyle=1;fontSize=14;" parent="1" vertex="1">
          <mxGeometry x="200" y="1230" width="170" height="40" as="geometry" />
        </mxCell>
        <mxCell id="3HEFfXsCce3jdv47LW5A-3" value="0" style="rounded=0;whiteSpace=wrap;html=1;" parent="1" vertex="1">
          <mxGeometry x="290" y="1200" width="120" height="30" as="geometry" />
        </mxCell>
        <mxCell id="3HEFfXsCce3jdv47LW5A-4" value="" style="rounded=0;whiteSpace=wrap;html=1;" parent="1" vertex="1">
          <mxGeometry x="170" y="1170" width="120" height="30" as="geometry" />
        </mxCell>
        <mxCell id="3HEFfXsCce3jdv47LW5A-5" value="" style="rounded=0;whiteSpace=wrap;html=1;" parent="1" vertex="1">
          <mxGeometry x="290" y="1170" width="120" height="30" as="geometry" />
        </mxCell>
        <mxCell id="3HEFfXsCce3jdv47LW5A-6" value="" style="ellipse;shape=cloud;whiteSpace=wrap;html=1;labelBackgroundColor=none;fillColor=none;" parent="1" vertex="1">
          <mxGeometry x="407.5" y="1010" width="455" height="365" as="geometry" />
        </mxCell>
        <mxCell id="3HEFfXsCce3jdv47LW5A-8" value="Heap&amp;nbsp;" style="text;html=1;align=center;verticalAlign=middle;whiteSpace=wrap;rounded=0;fontStyle=1;fontSize=14;" parent="1" vertex="1">
          <mxGeometry x="560" y="1360" width="170" height="30" as="geometry" />
        </mxCell>
        <mxCell id="3HEFfXsCce3jdv47LW5A-12" style="edgeStyle=orthogonalEdgeStyle;rounded=0;orthogonalLoop=1;jettySize=auto;html=1;exitX=1;exitY=0.5;exitDx=0;exitDy=0;entryX=1;entryY=0.5;entryDx=0;entryDy=0;" parent="1" target="3HEFfXsCce3jdv47LW5A-10" edge="1">
          <mxGeometry relative="1" as="geometry">
            <mxPoint x="390" y="1350" as="sourcePoint" />
            <Array as="points">
              <mxPoint x="540" y="1350" />
              <mxPoint x="540" y="1192" />
            </Array>
          </mxGeometry>
        </mxCell>
        <mxCell id="3HEFfXsCce3jdv47LW5A-10" value="display()" style="rounded=0;whiteSpace=wrap;html=1;" parent="1" vertex="1">
          <mxGeometry x="550" y="1167.5" width="120" height="50" as="geometry" />
        </mxCell>
        <mxCell id="3HEFfXsCce3jdv47LW5A-11" value="&lt;b&gt;&lt;font style=&quot;font-size: 14px;&quot;&gt;101&lt;/font&gt;&lt;/b&gt;" style="text;html=1;align=center;verticalAlign=middle;whiteSpace=wrap;rounded=0;" parent="1" vertex="1">
          <mxGeometry x="580" y="1137.5" width="60" height="30" as="geometry" />
        </mxCell>
        <mxCell id="3HEFfXsCce3jdv47LW5A-13" value="Anonymous Object" style="text;html=1;align=center;verticalAlign=middle;whiteSpace=wrap;rounded=0;fontStyle=1;fontSize=14;" parent="1" vertex="1">
          <mxGeometry x="220" y="1330" width="170" height="40" as="geometry" />
        </mxCell>
        <mxCell id="3HEFfXsCce3jdv47LW5A-14" value="" style="rounded=0;whiteSpace=wrap;html=1;" parent="1" vertex="1">
          <mxGeometry x="167.5" y="1090" width="120" height="30" as="geometry" />
        </mxCell>
        <mxCell id="3HEFfXsCce3jdv47LW5A-15" value="Display Method Stack" style="text;html=1;align=center;verticalAlign=middle;whiteSpace=wrap;rounded=0;fontStyle=1;fontSize=14;" parent="1" vertex="1">
          <mxGeometry x="197.5" y="1120" width="170" height="40" as="geometry" />
        </mxCell>
        <mxCell id="3HEFfXsCce3jdv47LW5A-16" value="" style="rounded=0;whiteSpace=wrap;html=1;" parent="1" vertex="1">
          <mxGeometry x="287.5" y="1090" width="120" height="30" as="geometry" />
        </mxCell>
        <mxCell id="_UqWMZQMVtbYugspNlQm-1" value="myAnimal" style="rounded=0;whiteSpace=wrap;html=1;" vertex="1" parent="1">
          <mxGeometry x="160" y="1590" width="120" height="30" as="geometry" />
        </mxCell>
        <mxCell id="_UqWMZQMVtbYugspNlQm-2" value="Main Method Stack" style="text;html=1;align=center;verticalAlign=middle;whiteSpace=wrap;rounded=0;fontStyle=1;fontSize=14;" vertex="1" parent="1">
          <mxGeometry x="190" y="1620" width="170" height="40" as="geometry" />
        </mxCell>
        <mxCell id="_UqWMZQMVtbYugspNlQm-17" style="edgeStyle=orthogonalEdgeStyle;rounded=0;orthogonalLoop=1;jettySize=auto;html=1;entryX=0;entryY=0.5;entryDx=0;entryDy=0;curved=1;dashed=1;dashPattern=12 12;" edge="1" parent="1" source="_UqWMZQMVtbYugspNlQm-3" target="_UqWMZQMVtbYugspNlQm-8">
          <mxGeometry relative="1" as="geometry">
            <Array as="points">
              <mxPoint x="510" y="1605" />
              <mxPoint x="510" y="1540" />
            </Array>
          </mxGeometry>
        </mxCell>
        <mxCell id="_UqWMZQMVtbYugspNlQm-3" value="&lt;strike&gt;101&lt;/strike&gt;" style="rounded=0;whiteSpace=wrap;html=1;" vertex="1" parent="1">
          <mxGeometry x="280" y="1590" width="120" height="30" as="geometry" />
        </mxCell>
        <mxCell id="_UqWMZQMVtbYugspNlQm-4" value="myAnimal" style="rounded=0;whiteSpace=wrap;html=1;" vertex="1" parent="1">
          <mxGeometry x="160" y="1560" width="120" height="30" as="geometry" />
        </mxCell>
        <mxCell id="_UqWMZQMVtbYugspNlQm-18" style="edgeStyle=orthogonalEdgeStyle;rounded=0;orthogonalLoop=1;jettySize=auto;html=1;entryX=0;entryY=0.5;entryDx=0;entryDy=0;curved=1;" edge="1" parent="1" source="_UqWMZQMVtbYugspNlQm-5" target="_UqWMZQMVtbYugspNlQm-15">
          <mxGeometry relative="1" as="geometry" />
        </mxCell>
        <mxCell id="_UqWMZQMVtbYugspNlQm-5" value="102" style="rounded=0;whiteSpace=wrap;html=1;" vertex="1" parent="1">
          <mxGeometry x="280" y="1560" width="120" height="30" as="geometry" />
        </mxCell>
        <mxCell id="_UqWMZQMVtbYugspNlQm-6" value="Heap&amp;nbsp;" style="text;html=1;align=center;verticalAlign=middle;whiteSpace=wrap;rounded=0;fontStyle=1;fontSize=14;" vertex="1" parent="1">
          <mxGeometry x="550" y="1750" width="170" height="30" as="geometry" />
        </mxCell>
        <mxCell id="_UqWMZQMVtbYugspNlQm-8" value="makeSound()" style="rounded=0;whiteSpace=wrap;html=1;" vertex="1" parent="1">
          <mxGeometry x="580" y="1515" width="120" height="50" as="geometry" />
        </mxCell>
        <mxCell id="_UqWMZQMVtbYugspNlQm-9" value="&lt;b&gt;101 (Dog&#39;s Object)&lt;/b&gt;" style="text;html=1;align=center;verticalAlign=middle;whiteSpace=wrap;rounded=0;" vertex="1" parent="1">
          <mxGeometry x="570" y="1485" width="140" height="30" as="geometry" />
        </mxCell>
        <mxCell id="_UqWMZQMVtbYugspNlQm-11" value="" style="rounded=0;whiteSpace=wrap;html=1;" vertex="1" parent="1">
          <mxGeometry x="157.5" y="1480" width="120" height="30" as="geometry" />
        </mxCell>
        <mxCell id="_UqWMZQMVtbYugspNlQm-12" value="MakeSound Method Stack" style="text;html=1;align=center;verticalAlign=middle;whiteSpace=wrap;rounded=0;fontStyle=1;fontSize=14;" vertex="1" parent="1">
          <mxGeometry x="170" y="1510" width="187.5" height="40" as="geometry" />
        </mxCell>
        <mxCell id="_UqWMZQMVtbYugspNlQm-13" value="" style="rounded=0;whiteSpace=wrap;html=1;" vertex="1" parent="1">
          <mxGeometry x="277.5" y="1480" width="120" height="30" as="geometry" />
        </mxCell>
        <mxCell id="_UqWMZQMVtbYugspNlQm-14" value="" style="ellipse;shape=cloud;whiteSpace=wrap;html=1;labelBackgroundColor=none;fillColor=none;" vertex="1" parent="1">
          <mxGeometry x="395" y="1400" width="455" height="365" as="geometry" />
        </mxCell>
        <mxCell id="_UqWMZQMVtbYugspNlQm-15" value="makeSound()" style="rounded=0;whiteSpace=wrap;html=1;" vertex="1" parent="1">
          <mxGeometry x="580" y="1615" width="120" height="50" as="geometry" />
        </mxCell>
        <mxCell id="_UqWMZQMVtbYugspNlQm-16" value="&lt;b&gt;102 (Cat&#39;s Object)&lt;/b&gt;" style="text;html=1;align=center;verticalAlign=middle;whiteSpace=wrap;rounded=0;" vertex="1" parent="1">
          <mxGeometry x="570" y="1585" width="140" height="30" as="geometry" />
        </mxCell>
        <mxCell id="_UqWMZQMVtbYugspNlQm-19" value="&lt;b&gt;Initially Dog Object&amp;nbsp;&lt;/b&gt;&lt;div&gt;&lt;b&gt;Assigned&lt;/b&gt;&lt;/div&gt;" style="text;html=1;align=center;verticalAlign=middle;resizable=0;points=[];autosize=1;strokeColor=none;fillColor=none;" vertex="1" parent="1">
          <mxGeometry x="450" y="1510" width="140" height="40" as="geometry" />
        </mxCell>
        <mxCell id="_UqWMZQMVtbYugspNlQm-20" value="&lt;b&gt;Later Cat Object&amp;nbsp;&lt;/b&gt;&lt;div&gt;&lt;b&gt;Assigned&lt;/b&gt;&lt;/div&gt;" style="text;html=1;align=center;verticalAlign=middle;resizable=0;points=[];autosize=1;strokeColor=none;fillColor=none;" vertex="1" parent="1">
          <mxGeometry x="460" y="1640" width="120" height="40" as="geometry" />
        </mxCell>
      </root>
    </mxGraphModel>
  </diagram>
</mxfile>
